<mxfile host="65bd71144e">
    <diagram id="b5PoYPhxwRY9seEpg1i3" name="Page-1">
        <mxGraphModel dx="912" dy="614" grid="1" gridSize="10" guides="1" tooltips="1" connect="1" arrows="1" fold="1" page="1" pageScale="1" pageWidth="827" pageHeight="1169" math="0" shadow="0">
            <root>
                <mxCell id="0"/>
                <mxCell id="1" parent="0"/>
                <mxCell id="31" style="edgeStyle=none;html=1;exitX=0;exitY=0.5;exitDx=0;exitDy=0;endArrow=none;endFill=0;rounded=0;" parent="1" source="2" edge="1">
                    <mxGeometry relative="1" as="geometry">
                        <mxPoint x="160" y="520" as="targetPoint"/>
                    </mxGeometry>
                </mxCell>
                <mxCell id="55" style="edgeStyle=none;shape=connector;rounded=0;html=1;exitX=1;exitY=0.5;exitDx=0;exitDy=0;labelBackgroundColor=default;strokeColor=default;fontFamily=Helvetica;fontSize=11;fontColor=default;endArrow=none;endFill=0;entryX=0;entryY=0.5;entryDx=0;entryDy=0;" edge="1" parent="1" source="2">
                    <mxGeometry relative="1" as="geometry">
                        <mxPoint x="216" y="190" as="targetPoint"/>
                        <Array as="points">
                            <mxPoint x="160" y="190"/>
                        </Array>
                    </mxGeometry>
                </mxCell>
                <mxCell id="2" value="" style="pointerEvents=1;verticalLabelPosition=bottom;shadow=0;dashed=0;align=center;html=1;verticalAlign=top;shape=mxgraph.electrical.miscellaneous.batteryStack;rotation=-90;" parent="1" vertex="1">
                    <mxGeometry x="110" y="252.5" width="100" height="60" as="geometry"/>
                </mxCell>
                <mxCell id="54" style="edgeStyle=none;shape=connector;rounded=0;html=1;exitX=0;exitY=0.5;exitDx=0;exitDy=0;exitPerimeter=0;labelBackgroundColor=default;strokeColor=default;fontFamily=Helvetica;fontSize=11;fontColor=default;endArrow=none;endFill=0;startArrow=none;" edge="1" parent="1" source="60">
                    <mxGeometry relative="1" as="geometry">
                        <mxPoint x="160" y="520" as="targetPoint"/>
                    </mxGeometry>
                </mxCell>
                <mxCell id="3" value="" style="pointerEvents=1;verticalLabelPosition=bottom;shadow=0;dashed=0;align=center;html=1;verticalAlign=top;shape=mxgraph.electrical.resistors.resistor_2;rotation=0;" parent="1" vertex="1">
                    <mxGeometry x="320" y="510" width="100" height="20" as="geometry"/>
                </mxCell>
                <mxCell id="53" style="edgeStyle=none;html=1;exitX=1;exitY=0.57;exitDx=0;exitDy=0;exitPerimeter=0;entryX=1;entryY=0.5;entryDx=0;entryDy=0;entryPerimeter=0;endArrow=none;endFill=0;rounded=0;" edge="1" parent="1" source="4" target="3">
                    <mxGeometry relative="1" as="geometry"/>
                </mxCell>
                <mxCell id="57" style="edgeStyle=none;shape=connector;rounded=0;html=1;exitX=0;exitY=0.57;exitDx=0;exitDy=0;exitPerimeter=0;labelBackgroundColor=default;strokeColor=default;fontFamily=Helvetica;fontSize=11;fontColor=default;endArrow=none;endFill=0;" edge="1" parent="1" source="4">
                    <mxGeometry relative="1" as="geometry">
                        <mxPoint x="505" y="360" as="targetPoint"/>
                    </mxGeometry>
                </mxCell>
                <mxCell id="4" value="" style="verticalLabelPosition=bottom;shadow=0;dashed=0;align=center;html=1;verticalAlign=top;shape=mxgraph.electrical.opto_electronics.led_2;pointerEvents=1;rotation=90;" parent="1" vertex="1">
                    <mxGeometry x="460" y="435" width="100" height="70" as="geometry"/>
                </mxCell>
                <mxCell id="5" value="+" style="text;html=1;align=center;verticalAlign=middle;resizable=0;points=[];autosize=1;strokeColor=none;fillColor=none;" parent="1" vertex="1">
                    <mxGeometry x="105" y="217.5" width="30" height="30" as="geometry"/>
                </mxCell>
                <mxCell id="6" value="-" style="text;html=1;align=center;verticalAlign=middle;resizable=0;points=[];autosize=1;strokeColor=none;fillColor=none;" parent="1" vertex="1">
                    <mxGeometry x="105" y="317.5" width="30" height="30" as="geometry"/>
                </mxCell>
                <mxCell id="7" value="5 V" style="text;html=1;align=center;verticalAlign=middle;resizable=0;points=[];autosize=1;strokeColor=none;fillColor=none;" parent="1" vertex="1">
                    <mxGeometry x="80" y="267.5" width="40" height="30" as="geometry"/>
                </mxCell>
                <mxCell id="8" value="220&amp;nbsp;&lt;span style=&quot;color: rgb(77, 81, 86); font-family: arial, sans-serif; font-size: 14px; text-align: left; background-color: rgb(255, 255, 255);&quot;&gt;Î©&lt;/span&gt;" style="text;html=1;align=center;verticalAlign=middle;resizable=0;points=[];autosize=1;strokeColor=none;fillColor=none;" parent="1" vertex="1">
                    <mxGeometry x="340" y="530" width="60" height="30" as="geometry"/>
                </mxCell>
                <mxCell id="14" value="Samuel Webster&lt;br&gt;April 2023&lt;br&gt;Single LED with AND Gate" style="text;html=1;align=left;verticalAlign=middle;resizable=0;points=[];autosize=1;strokeColor=none;fillColor=none;" parent="1" vertex="1">
                    <mxGeometry x="135" y="100" width="170" height="60" as="geometry"/>
                </mxCell>
                <mxCell id="15" value="&lt;div&gt;AND gate&lt;/div&gt;&lt;div&gt;A | B | out&lt;/div&gt;&lt;div&gt;---------&amp;nbsp;&lt;/div&gt;&lt;div&gt;0 | 0 | 0&lt;/div&gt;&lt;div&gt;0 | 1 | 0&lt;/div&gt;&lt;div&gt;1 | 0 | 0&lt;/div&gt;&lt;div&gt;1 | 1 | 1&lt;/div&gt;" style="text;html=1;align=left;verticalAlign=middle;resizable=0;points=[];autosize=1;strokeColor=none;fillColor=none;" parent="1" vertex="1">
                    <mxGeometry x="425" y="100" width="80" height="110" as="geometry"/>
                </mxCell>
                <mxCell id="36" style="edgeStyle=none;shape=connector;rounded=0;html=1;exitX=1;exitY=0.88;exitDx=0;exitDy=0;labelBackgroundColor=default;strokeColor=default;fontFamily=Helvetica;fontSize=11;fontColor=default;endArrow=none;endFill=0;" parent="1" source="16" edge="1">
                    <mxGeometry relative="1" as="geometry">
                        <mxPoint x="220" y="370" as="targetPoint"/>
                    </mxGeometry>
                </mxCell>
                <mxCell id="38" style="edgeStyle=none;shape=connector;rounded=0;html=1;exitX=1;exitY=0.12;exitDx=0;exitDy=0;labelBackgroundColor=default;strokeColor=default;fontFamily=Helvetica;fontSize=11;fontColor=default;endArrow=none;endFill=0;" parent="1" source="16" edge="1">
                    <mxGeometry relative="1" as="geometry">
                        <mxPoint x="200" y="390" as="targetPoint"/>
                    </mxGeometry>
                </mxCell>
                <mxCell id="58" style="edgeStyle=none;shape=connector;rounded=0;html=1;exitX=0;exitY=0.5;exitDx=0;exitDy=0;entryX=0;entryY=0.75;entryDx=0;entryDy=0;entryPerimeter=0;labelBackgroundColor=default;strokeColor=default;fontFamily=Helvetica;fontSize=11;fontColor=default;endArrow=none;endFill=0;" edge="1" parent="1" source="16" target="56">
                    <mxGeometry relative="1" as="geometry"/>
                </mxCell>
                <mxCell id="16" value="" style="shape=mxgraph.electrical.electro-mechanical.twoWaySwitch;aspect=fixed;elSwitchState=2;rotation=-180;" parent="1" vertex="1">
                    <mxGeometry x="256" y="367" width="75" height="26" as="geometry"/>
                </mxCell>
                <mxCell id="22" value="" style="edgeStyle=none;orthogonalLoop=1;jettySize=auto;html=1;endArrow=none;endFill=0;startArrow=none;" parent="1" edge="1">
                    <mxGeometry width="100" relative="1" as="geometry">
                        <mxPoint x="216" y="190" as="sourcePoint"/>
                        <mxPoint x="220" y="190" as="targetPoint"/>
                        <Array as="points"/>
                    </mxGeometry>
                </mxCell>
                <mxCell id="37" style="edgeStyle=none;shape=connector;rounded=0;html=1;exitX=1;exitY=0.88;exitDx=0;exitDy=0;labelBackgroundColor=default;strokeColor=default;fontFamily=Helvetica;fontSize=11;fontColor=default;endArrow=none;endFill=0;" parent="1" source="35" edge="1">
                    <mxGeometry relative="1" as="geometry">
                        <mxPoint x="220" y="227" as="targetPoint"/>
                    </mxGeometry>
                </mxCell>
                <mxCell id="50" style="edgeStyle=none;shape=connector;rounded=0;html=1;exitX=1;exitY=0.12;exitDx=0;exitDy=0;labelBackgroundColor=default;strokeColor=default;fontFamily=Helvetica;fontSize=11;fontColor=default;endArrow=none;endFill=0;" parent="1" source="35" edge="1">
                    <mxGeometry relative="1" as="geometry">
                        <mxPoint x="200" y="520" as="targetPoint"/>
                        <Array as="points">
                            <mxPoint x="200" y="247"/>
                        </Array>
                    </mxGeometry>
                </mxCell>
                <mxCell id="59" style="edgeStyle=none;shape=connector;rounded=0;html=1;exitX=0;exitY=0.5;exitDx=0;exitDy=0;entryX=0;entryY=0.25;entryDx=0;entryDy=0;entryPerimeter=0;labelBackgroundColor=default;strokeColor=default;fontFamily=Helvetica;fontSize=11;fontColor=default;endArrow=none;endFill=0;" edge="1" parent="1" source="35" target="56">
                    <mxGeometry relative="1" as="geometry">
                        <Array as="points">
                            <mxPoint x="331" y="345"/>
                        </Array>
                    </mxGeometry>
                </mxCell>
                <mxCell id="35" value="" style="shape=mxgraph.electrical.electro-mechanical.twoWaySwitch;aspect=fixed;elSwitchState=2;rotation=-180;" parent="1" vertex="1">
                    <mxGeometry x="256" y="224" width="75" height="26" as="geometry"/>
                </mxCell>
                <mxCell id="41" value="Input A" style="text;html=1;align=center;verticalAlign=middle;resizable=0;points=[];autosize=1;strokeColor=none;fillColor=none;fontSize=11;fontFamily=Helvetica;fontColor=default;" parent="1" vertex="1">
                    <mxGeometry x="260" y="245" width="60" height="30" as="geometry"/>
                </mxCell>
                <mxCell id="42" value="Input B" style="text;html=1;align=center;verticalAlign=middle;resizable=0;points=[];autosize=1;strokeColor=none;fillColor=none;fontSize=11;fontFamily=Helvetica;fontColor=default;" parent="1" vertex="1">
                    <mxGeometry x="260" y="400" width="60" height="30" as="geometry"/>
                </mxCell>
                <mxCell id="43" value="Output" style="text;html=1;align=center;verticalAlign=middle;resizable=0;points=[];autosize=1;strokeColor=none;fillColor=none;fontSize=11;fontFamily=Helvetica;fontColor=default;" parent="1" vertex="1">
                    <mxGeometry x="411" y="460" width="60" height="30" as="geometry"/>
                </mxCell>
                <mxCell id="46" value="" style="edgeStyle=none;orthogonalLoop=1;jettySize=auto;html=1;endArrow=none;endFill=0;" parent="1" target="44" edge="1">
                    <mxGeometry width="100" relative="1" as="geometry">
                        <mxPoint x="220" y="370" as="sourcePoint"/>
                        <mxPoint x="220" y="190" as="targetPoint"/>
                        <Array as="points"/>
                    </mxGeometry>
                </mxCell>
                <mxCell id="44" value="" style="ellipse;whiteSpace=wrap;html=1;aspect=fixed;fontFamily=Helvetica;fontSize=11;fontColor=default;fillColor=#000000;" parent="1" vertex="1">
                    <mxGeometry x="216" y="222" width="10" height="10" as="geometry"/>
                </mxCell>
                <mxCell id="48" value="" style="ellipse;whiteSpace=wrap;html=1;aspect=fixed;fontFamily=Helvetica;fontSize=11;fontColor=default;fillColor=#000000;" parent="1" vertex="1">
                    <mxGeometry x="195" y="385" width="10" height="10" as="geometry"/>
                </mxCell>
                <mxCell id="52" value="" style="edgeStyle=none;orthogonalLoop=1;jettySize=auto;html=1;endArrow=none;endFill=0;startArrow=none;" parent="1" source="44" edge="1">
                    <mxGeometry width="100" relative="1" as="geometry">
                        <mxPoint x="220.86491419326035" y="222.00182515063352" as="sourcePoint"/>
                        <mxPoint x="220" y="190" as="targetPoint"/>
                        <Array as="points"/>
                    </mxGeometry>
                </mxCell>
                <mxCell id="56" value="" style="verticalLabelPosition=bottom;shadow=0;dashed=0;align=center;html=1;verticalAlign=top;shape=mxgraph.electrical.logic_gates.logic_gate;operation=and;fontFamily=Helvetica;fontSize=11;fontColor=default;" vertex="1" parent="1">
                    <mxGeometry x="405" y="330" width="100" height="60" as="geometry"/>
                </mxCell>
                <mxCell id="61" value="" style="edgeStyle=none;shape=connector;rounded=0;html=1;exitX=0;exitY=0.5;exitDx=0;exitDy=0;exitPerimeter=0;labelBackgroundColor=default;strokeColor=default;fontFamily=Helvetica;fontSize=11;fontColor=default;endArrow=none;endFill=0;" edge="1" parent="1" source="3" target="60">
                    <mxGeometry relative="1" as="geometry">
                        <mxPoint x="160" y="520" as="targetPoint"/>
                        <mxPoint x="320" y="520" as="sourcePoint"/>
                    </mxGeometry>
                </mxCell>
                <mxCell id="60" value="" style="ellipse;whiteSpace=wrap;html=1;aspect=fixed;fontFamily=Helvetica;fontSize=11;fontColor=default;fillColor=#000000;" vertex="1" parent="1">
                    <mxGeometry x="195" y="515" width="10" height="10" as="geometry"/>
                </mxCell>
            </root>
        </mxGraphModel>
    </diagram>
</mxfile>